<svg xmlns="http://www.w3.org/2000/svg" xmlns:xlink="http://www.w3.org/1999/xlink" viewBox="0 0 133.64 141.22"><defs><style>.cls-1,.cls-11,.cls-9{fill:none;}.cls-2{isolation:isolate;}.cls-3{clip-path:url(#clip-path);}.cls-4{fill:#5b4852;}.cls-5{fill:#d88d48;}.cls-6{fill:#fff;}.cls-10,.cls-7{fill:#f1b69a;}.cls-8{fill:#150a08;}.cls-9{stroke:#e07e61;}.cls-11,.cls-9{stroke-linecap:round;stroke-miterlimit:10;}.cls-10{opacity:0.5;mix-blend-mode:multiply;}.cls-11{stroke:#150a08;}</style><clipPath id="clip-path" transform="translate(-286.14 -178.33)"><circle class="cls-1" cx="352.96" cy="241.25" r="76.71" transform="translate(56.54 549.34) rotate(-80.46)"/></clipPath></defs><g class="cls-2"><g id="OBJECTS"><g class="cls-3"><path class="cls-4" d="M381.94,227.25c10.56-19,2.19-29.91-4.56-26.34,0,0-1-11.79-16.5-18.89-17.9-8.23-41-1.82-45.53,10.57-4.16,11.43,3.27,16.94,3.27,16.94s-4.6,8.21,3.27,20.5S377.21,235.76,381.94,227.25Z" transform="translate(-286.14 -178.33)"/><path class="cls-5" d="M419.77,319.55H286.14s4.05-22.41,13.24-35.31,43.27-17.62,43.27-17.62L353,268.21l10.3-1.59s34.1,4.71,43.29,17.62S419.77,319.55,419.77,319.55Z" transform="translate(-286.14 -178.33)"/><path class="cls-6" d="M342.65,266.62l-13.2,2.48s3,14.93,15.11,22.39l8.19-10V270.68Z" transform="translate(-286.14 -178.33)"/><path class="cls-6" d="M362.35,266.62l13.2,2.48s-3,14.93-15.11,22.39l-8.19-10V270.68Z" transform="translate(-286.14 -178.33)"/><path class="cls-7" d="M352.73,278h0a9,9,0,0,1-9.05-9.05V251.66h18.11V269A9.06,9.06,0,0,1,352.73,278Z" transform="translate(-286.14 -178.33)"/><path class="cls-8" d="M361.79,249.66v10.62s-3,5.28-9.06,5.28c-4.83,0-9.05-4.58-9.05-4.58V249.66Z" transform="translate(-286.14 -178.33)"/><path class="cls-7" d="M327.41,231.07c-4.9-7.44-10.58-2.66-10.58,2.58,0,7.58,8.23,14.11,12.93,8.67S327.41,231.07,327.41,231.07Z" transform="translate(-286.14 -178.33)"/><path class="cls-9" d="M326.34,234.51c-3-5.7-7.26-.38-5.65,1.73" transform="translate(-286.14 -178.33)"/><path class="cls-7" d="M376.31,231.07c4.89-7.44,10.57-2.66,10.57,2.58,0,7.58-8.22,14.11-12.92,8.67S376.31,231.07,376.31,231.07Z" transform="translate(-286.14 -178.33)"/><path class="cls-9" d="M377.38,234.51c3-5.7,7.25-.38,5.65,1.73" transform="translate(-286.14 -178.33)"/><path class="cls-7" d="M351.83,260.28c-19.34,0-30.78-21.15-26.26-42.85,3.73-17.89,48.84-17.88,52.57,0C382.66,239.13,371.19,260.28,351.83,260.28Z" transform="translate(-286.14 -178.33)"/><path class="cls-10" d="M349.26,238.55c2,.95,6.48-1.16,6.57,0s-2.38,2.18-3.28,2.18S349.26,238.55,349.26,238.55Z" transform="translate(-286.14 -178.33)"/><path class="cls-9" d="M349.33,232.72c-2.82,6.1,1.4,7.28,2.53,7.43" transform="translate(-286.14 -178.33)"/><path class="cls-11" d="M345.1,243.47c7.47,1.43,13.39.24,15.78-1.68" transform="translate(-286.14 -178.33)"/><path class="cls-8" d="M344.21,216.09c-1.21-2.7-8.29-1.47-9.3.45s2.32,2.47,4.78,2.34S345,217.8,344.21,216.09Z" transform="translate(-286.14 -178.33)"/><path class="cls-8" d="M359.51,216.09c1.21-2.7,8.29-1.47,9.29.45s-2.31,2.47-4.77,2.34S358.74,217.8,359.51,216.09Z" transform="translate(-286.14 -178.33)"/><path class="cls-10" d="M350.11,247.15c2.71,0,6.6-1.4,7.2,0s-2.71,4.2-4.76,4S347,247.14,350.11,247.15Z" transform="translate(-286.14 -178.33)"/><path class="cls-8" d="M339.09,226.49a1.95,1.95,0,1,0,2-2A1.95,1.95,0,0,0,339.09,226.49Z" transform="translate(-286.14 -178.33)"/><path class="cls-8" d="M364.62,226.49a1.95,1.95,0,1,1-1.94-2A1.94,1.94,0,0,1,364.62,226.49Z" transform="translate(-286.14 -178.33)"/><path class="cls-4" d="M369,204c-5,11.24-16,4.84-16,4.84a24.86,24.86,0,0,1-18.26,5.67c-11.06-1.08-16.83-14.34-3.36-20S376,188.21,369,204Z" transform="translate(-286.14 -178.33)"/></g></g></g></svg>